<!DOCTYPE svg PUBLIC "-//W3C//DTD SVG 20010904//EN" "http://www.w3.org/TR/2001/REC-SVG-20010904/DTD/svg10.dtd">
<svg version="1.0" xmlns="http://www.w3.org/2000/svg" width="1600px" height="380px" viewBox="0 0 16000 3800" preserveAspectRatio="xMidYMid meet">
<g id="layer101" fill="#000000" stroke="none">
 <path d="M4875 3338 l62 -183 109 -6 c164 -8 178 -21 203 -190 5 -35 16 -111 25 -169 8 -58 22 -159 31 -225 9 -66 20 -147 25 -180 14 -88 25 -167 70 -495 23 -162 59 -419 80 -570 22 -151 44 -313 50 -360 6 -47 13 -93 16 -102 5 -17 29 -18 325 -18 269 0 319 2 319 14 0 8 -5 36 -10 63 -14 64 -61 305 -104 533 -92 486 -121 638 -152 795 -18 93 -31 171 -30 172 1 2 17 -34 36 -80 53 -130 111 -270 120 -292 12 -27 249 -602 386 -937 l109 -267 323 -1 c211 0 322 3 322 10 0 6 -4 18 -10 28 -5 9 -28 58 -51 107 -101 222 -145 317 -190 414 -27 57 -49 104 -49 106 0 1 -20 45 -44 96 -58 125 -162 350 -193 419 -27 60 -52 114 -108 235 -53 115 -154 334 -172 375 -58 130 -239 486 -275 540 -60 91 -181 209 -258 253 -158 88 -221 97 -666 97 l-361 0 62 -182z"/>
 <path d="M8748 3336 c-233 -78 -258 -206 -121 -616 87 -261 139 -366 223 -450 93 -92 181 -134 605 -285 87 -32 199 -75 247 -98 79 -36 91 -45 119 -91 42 -68 119 -303 121 -368 0 -42 -3 -55 -22 -70 -49 -39 -133 -8 -167 62 -22 44 -69 171 -119 317 l-49 143 -332 0 c-279 0 -333 -2 -333 -14 0 -41 134 -382 172 -438 10 -14 18 -29 18 -33 0 -16 69 -104 125 -161 147 -146 359 -251 586 -290 123 -21 423 -15 519 11 98 26 169 64 220 114 68 68 94 129 98 228 7 146 -35 291 -348 1213 -83 245 -179 527 -213 627 l-62 183 -347 0 c-192 0 -348 -1 -348 -3 0 -2 14 -43 30 -92 17 -49 30 -92 30 -96 0 -4 -23 14 -51 42 -133 129 -278 190 -452 188 -57 0 -103 -7 -149 -23z m668 -413 c43 -28 51 -47 189 -450 l94 -272 -60 37 c-33 20 -92 63 -130 95 -62 52 -74 69 -118 160 -97 202 -146 398 -109 435 18 18 104 15 134 -5z"/>
 <path d="M10581 3338 c-118 -40 -201 -149 -201 -262 1 -103 30 -197 350 -1136 73 -212 135 -396 140 -410 4 -14 22 -61 40 -105 80 -201 153 -302 274 -379 134 -86 236 -116 388 -116 156 0 250 38 336 135 28 32 43 43 46 34 17 -49 91 -265 151 -444 l71 -210 357 -3 c196 -1 357 2 357 6 0 5 -41 128 -90 273 -50 145 -117 343 -150 439 -32 96 -116 342 -185 545 -69 204 -141 415 -160 470 -18 55 -102 300 -185 545 -84 245 -163 480 -177 523 l-25 77 -358 0 -358 0 9 -32 c5 -18 17 -56 28 -85 l19 -52 -71 48 c-216 144 -438 195 -606 139z m713 -422 c42 -32 102 -156 149 -311 8 -27 72 -216 142 -420 262 -767 262 -769 244 -809 -22 -48 -116 -47 -161 2 -43 46 -66 102 -210 527 -76 225 -177 521 -223 657 -118 349 -120 378 -23 378 38 0 59 -6 82 -24z"/>
 <path d="M12774 3345 c-215 -39 -351 -134 -405 -282 -33 -92 -33 -230 0 -358 30 -118 272 -843 341 -1025 169 -440 432 -665 865 -740 98 -17 370 -8 455 15 149 40 270 134 326 250 27 57 28 67 28 195 0 161 -16 229 -126 563 l-72 217 -466 0 -467 0 -56 168 c-31 92 -77 226 -101 297 -24 72 -50 158 -56 193 -16 81 -2 102 72 102 118 0 157 -57 275 -405 30 -88 57 -168 60 -177 5 -17 30 -18 345 -18 320 0 340 1 333 18 -4 9 -13 35 -20 57 -115 353 -191 493 -351 646 -220 210 -457 300 -779 298 -71 0 -162 -7 -201 -14z m880 -1715 c78 -235 76 -290 -9 -290 -15 0 -42 7 -61 16 -43 20 -86 105 -153 302 l-48 142 107 0 107 0 57 -170z"/>
 <path d="M6686 3218 c18 -57 78 -236 134 -398 56 -162 128 -374 160 -470 32 -96 111 -328 175 -515 64 -187 143 -419 175 -515 92 -271 287 -843 295 -862 7 -17 33 -18 349 -18 580 1 793 19 922 81 73 35 112 72 145 135 21 42 24 60 23 153 -1 134 -18 201 -164 626 -123 359 -213 504 -368 599 -148 89 -262 116 -529 123 -117 3 -213 7 -213 8 0 1 -59 174 -131 386 -210 618 -259 763 -259 766 0 2 -168 3 -374 3 l-374 0 34 -102z m1415 -1559 c94 -32 134 -99 229 -383 46 -137 60 -192 60 -237 0 -75 -19 -90 -117 -92 l-68 -2 -30 90 c-99 291 -208 612 -212 623 -7 16 90 17 138 1z"/>
 <path d="M14141 2998 c60 -178 137 -404 171 -503 106 -315 192 -568 348 -1025 83 -245 167 -490 185 -545 63 -186 143 -420 155 -452 l12 -33 370 0 c348 0 370 1 363 18 -7 18 -102 296 -160 467 -18 55 -102 300 -185 545 -83 245 -182 535 -219 645 -136 399 -223 655 -315 925 l-93 275 -371 3 -371 2 110 -322z"/>
 <path d="M3375 3225 c-115 -38 -169 -77 -202 -143 -24 -48 -25 -60 -20 -140 10 -172 156 -591 256 -735 73 -106 204 -177 566 -307 128 -46 354 -134 387 -151 46 -23 78 -70 114 -164 68 -182 92 -306 64 -340 -15 -18 -88 -20 -125 -3 -40 18 -103 163 -200 466 l-17 52 -339 0 -338 0 38 -107 c147 -414 239 -543 491 -689 79 -46 174 -87 260 -113 149 -44 407 -53 584 -22 187 34 288 99 347 224 25 53 29 74 29 142 0 148 -52 323 -390 1315 -83 245 -170 500 -192 568 l-41 122 -349 0 c-191 0 -348 -1 -348 -3 0 -2 14 -43 30 -92 17 -49 30 -91 30 -93 0 -2 -29 23 -64 55 -75 68 -149 115 -232 145 -74 27 -275 35 -339 13z m650 -419 c14 -9 37 -40 51 -69 25 -47 209 -570 222 -626 5 -22 2 -22 -54 14 -183 117 -238 193 -324 452 -48 144 -53 213 -17 238 26 19 85 15 122 -9z"/>
 <path d="M265 3190 c5 -8 160 -461 335 -980 33 -96 107 -314 165 -485 58 -170 137 -402 175 -515 38 -113 115 -338 170 -500 56 -162 107 -313 114 -335 l12 -40 459 -3 c561 -4 659 5 805 70 125 56 171 124 178 263 4 77 0 108 -27 213 -17 68 -45 165 -62 215 -116 343 -147 426 -201 537 -54 109 -71 135 -138 200 -54 54 -96 85 -150 111 -165 80 -264 99 -514 99 l-181 0 -128 378 c-70 207 -158 467 -196 577 l-68 200 -377 3 c-243 1 -375 -1 -371 -8z m1466 -1654 c81 -34 116 -97 210 -373 97 -284 93 -315 -39 -335 -85 -14 -81 -16 -111 77 -11 33 -64 192 -119 353 l-100 292 63 0 c34 0 78 -6 96 -14z"/>
 <path d="M2073 3186 c3 -7 15 -42 26 -77 11 -35 72 -217 136 -404 64 -187 163 -477 220 -645 56 -168 133 -393 169 -500 37 -107 94 -274 126 -370 33 -96 107 -314 165 -485 59 -170 111 -325 116 -342 l10 -33 370 0 370 0 -6 23 c-8 25 -100 294 -176 517 -28 80 -77 224 -109 320 -118 350 -464 1368 -576 1695 -30 88 -66 195 -80 238 l-25 77 -371 0 c-311 0 -369 -2 -365 -14z"/>
 </g>
<g id="layer102" fill="#ffffff" stroke="none">
 <path d="M4875 3338 l62 -183 109 -6 c164 -8 178 -21 203 -190 5 -35 16 -111 25 -169 8 -58 22 -159 31 -225 9 -66 20 -147 25 -180 14 -88 25 -167 70 -495 23 -162 59 -419 80 -570 22 -151 44 -313 50 -360 6 -47 13 -93 16 -102 5 -17 29 -18 325 -18 269 0 319 2 319 14 0 8 -5 36 -10 63 -14 64 -61 305 -104 533 -92 486 -121 638 -152 795 -18 93 -31 171 -30 172 1 2 17 -34 36 -80 53 -130 111 -270 120 -292 12 -27 249 -602 386 -937 l109 -267 323 -1 c211 0 322 3 322 10 0 6 -4 18 -10 28 -5 9 -28 58 -51 107 -101 222 -145 317 -190 414 -27 57 -49 104 -49 106 0 1 -20 45 -44 96 -58 125 -162 350 -193 419 -27 60 -52 114 -108 235 -53 115 -154 334 -172 375 -58 130 -239 486 -275 540 -60 91 -181 209 -258 253 -158 88 -221 97 -666 97 l-361 0 62 -182z"/>
 <path d="M3375 3225 c-115 -38 -169 -77 -202 -143 -24 -48 -25 -60 -20 -140 10 -172 156 -591 256 -735 73 -106 204 -177 566 -307 128 -46 354 -134 387 -151 46 -23 78 -70 114 -164 68 -182 92 -306 64 -340 -15 -18 -88 -20 -125 -3 -40 18 -103 163 -200 466 l-17 52 -339 0 -338 0 38 -107 c147 -414 239 -543 491 -689 79 -46 174 -87 260 -113 149 -44 407 -53 584 -22 187 34 288 99 347 224 25 53 29 74 29 142 0 148 -52 323 -390 1315 -83 245 -170 500 -192 568 l-41 122 -349 0 c-191 0 -348 -1 -348 -3 0 -2 14 -43 30 -92 17 -49 30 -91 30 -93 0 -2 -29 23 -64 55 -75 68 -149 115 -232 145 -74 27 -275 35 -339 13z m650 -419 c14 -9 37 -40 51 -69 25 -47 209 -570 222 -626 5 -22 2 -22 -54 14 -183 117 -238 193 -324 452 -48 144 -53 213 -17 238 26 19 85 15 122 -9z"/>
 <path d="M265 3190 c5 -8 160 -461 335 -980 33 -96 107 -314 165 -485 58 -170 137 -402 175 -515 38 -113 115 -338 170 -500 56 -162 107 -313 114 -335 l12 -40 459 -3 c561 -4 659 5 805 70 125 56 171 124 178 263 4 77 0 108 -27 213 -17 68 -45 165 -62 215 -116 343 -147 426 -201 537 -54 109 -71 135 -138 200 -54 54 -96 85 -150 111 -165 80 -264 99 -514 99 l-181 0 -128 378 c-70 207 -158 467 -196 577 l-68 200 -377 3 c-243 1 -375 -1 -371 -8z m1466 -1654 c81 -34 116 -97 210 -373 97 -284 93 -315 -39 -335 -85 -14 -81 -16 -111 77 -11 33 -64 192 -119 353 l-100 292 63 0 c34 0 78 -6 96 -14z"/>
 <path d="M2073 3186 c3 -7 15 -42 26 -77 11 -35 72 -217 136 -404 64 -187 163 -477 220 -645 56 -168 133 -393 169 -500 37 -107 94 -274 126 -370 33 -96 107 -314 165 -485 59 -170 111 -325 116 -342 l10 -33 370 0 370 0 -6 23 c-8 25 -100 294 -176 517 -28 80 -77 224 -109 320 -118 350 -464 1368 -576 1695 -30 88 -66 195 -80 238 l-25 77 -371 0 c-311 0 -369 -2 -365 -14z"/>
 </g>

</svg>